<svg version="1.0" xmlns="http://www.w3.org/2000/svg" 
 width="291.000000pt" height="86.000000pt" viewBox="0 0 291.000000 86.000000"
 preserveAspectRatio="xMidYMid meet">

<g transform="translate(0.000000,86.000000) scale(0.100000,-0.100000)"
fill="#000000" stroke="none">
<path d="M622 740 c-54 -33 -62 -66 -62 -270 0 -197 8 -235 54 -265 36 -24
141 -17 178 10 51 39 58 69 58 268 0 201 -4 217 -59 254 -45 30 -122 31 -169
3z m116 -72 c8 -8 12 -65 12 -190 0 -177 0 -178 -24 -193 -19 -13 -29 -14 -45
-5 -20 10 -21 19 -21 193 0 192 3 207 45 207 12 0 26 -5 33 -12z"/>
<path d="M100 439 l0 -311 23 6 c12 3 32 6 45 6 l22 0 1 193 2 192 30 -187 31
-187 45 6 c25 3 47 6 48 7 0 1 15 89 31 196 l30 195 1 -192 c1 -210 -2 -199
60 -187 l31 7 0 284 0 284 -67 -3 -68 -3 -31 -200 c-26 -173 -31 -194 -37
-155 -4 25 -19 116 -34 203 l-26 157 -69 0 -68 0 0 -311z"/>
<path d="M883 738 c2 -7 24 -127 48 -265 l43 -253 73 0 c40 0 73 2 73 3 0 2
20 117 45 256 25 139 45 256 45 262 0 5 -20 9 -44 9 l-44 0 -12 -67 c-48 -291
-57 -336 -63 -313 -3 14 -18 97 -32 185 -14 88 -28 168 -31 178 -4 13 -16 17
-56 17 -36 0 -49 -4 -45 -12z"/>
<path d="M1250 490 l0 -260 50 0 50 0 0 260 0 260 -50 0 -50 0 0 -260z"/>
<path d="M1420 490 l0 -260 115 -1 c63 -1 121 -2 128 -3 7 -1 13 15 15 42 l3
42 -80 0 -81 0 0 75 0 75 66 0 65 0 -3 38 -3 37 -62 3 -63 3 0 69 0 70 80 0
80 0 0 35 0 35 -130 0 -130 0 0 -260z"/>
<path d="M1730 485 l0 -265 50 0 50 0 0 116 0 117 60 -7 60 -7 0 41 c0 37 -2
40 -29 40 -16 0 -43 3 -60 6 l-31 7 0 68 0 68 78 3 77 3 3 38 3 37 -130 0
-131 0 0 -265z"/>
<path d="M2030 480 l0 -270 34 0 c19 0 41 -3 50 -6 14 -6 16 22 16 270 l0 276
-50 0 -50 0 0 -270z"/>
<path d="M2190 476 l0 -274 43 -6 c23 -3 82 -9 130 -12 l88 -7 -3 44 c-3 42
-4 44 -38 47 -19 1 -54 5 -77 8 l-43 5 0 235 0 234 -50 0 -50 0 0 -274z"/>
<path d="M2475 733 c4 -10 26 -73 50 -139 l43 -121 -49 -137 c-27 -76 -49
-143 -49 -151 0 -11 75 -27 85 -17 1 2 18 50 36 108 18 57 35 104 39 104 4 0
22 -53 41 -117 l35 -118 49 -7 c27 -4 51 -6 52 -4 2 2 -20 76 -49 165 l-52
162 44 132 c25 73 46 138 48 145 2 8 -10 12 -42 12 l-45 0 -32 -100 c-18 -54
-35 -97 -39 -94 -3 3 -19 47 -36 97 l-31 92 -53 3 c-47 3 -52 1 -45 -15z"/>
</g>
</svg>